<?xml version="1.0" standalone="no"?><!DOCTYPE svg PUBLIC "-//W3C//DTD SVG 1.1//EN" "http://www.w3.org/Graphics/SVG/1.1/DTD/svg11.dtd"><svg t="1613629426389" class="icon" viewBox="0 0 1024 1024" version="1.1" xmlns="http://www.w3.org/2000/svg" p-id="1286" xmlns:xlink="http://www.w3.org/1999/xlink" width="200" height="200"><defs><style type="text/css"></style></defs><path d="M815.9 959.4H209.3c-79.8 0-144.4-64.7-144.4-144.4V208.4C64.9 128.6 129.6 64 209.3 64h606.6c79.8 0 144.4 64.7 144.4 144.4V815c0.1 79.8-64.6 144.4-144.4 144.4zM411.5 207.9s-25.9-28.4-57.8-28.4-57.8 25.9-57.8 57.8h-0.1v548.8h0.1c0 31.9 25.9 57.8 57.8 57.8s57.8-29.1 57.8-29.1l245-183.7-71.4-54.5-202.5 151.6V295.3l289.1 216.4-5.6 4.2 71.3 54.5 78.9-59.1-404.8-303.4z" fill="#d81e06" p-id="1287"></path></svg>