<?xml version="1.0" encoding="UTF-8" standalone="no"?>
<!DOCTYPE svg PUBLIC "-//W3C//DTD SVG 1.1//EN"
 "http://www.w3.org/Graphics/SVG/1.1/DTD/svg11.dtd">
<!-- Generated by graphviz version 2.47.3 (20210619.1520)
 -->
<!-- Title: dependencies Pages: 1 -->
<svg width="712pt" height="174pt"
 viewBox="0.00 0.00 712.00 173.80" xmlns="http://www.w3.org/2000/svg" xmlns:xlink="http://www.w3.org/1999/xlink">
<g id="graph0" class="graph" transform="scale(1 1) rotate(0) translate(4 169.8)">
<title>dependencies</title>
<polygon fill="white" stroke="transparent" points="-4,4 -4,-169.8 708,-169.8 708,4 -4,4"/>
<text text-anchor="middle" x="352" y="-8.2" font-family="sans-serif" font-size="14.00">dependencies</text>
<g id="clust1" class="cluster">
<title>cluster_AppModule</title>
<polygon fill="none" stroke="black" stroke-dasharray="1,5" points="8,-32.8 8,-157.8 696,-157.8 696,-32.8 8,-32.8"/>
</g>
<g id="clust6" class="cluster">
<title>cluster_AppModule_providers</title>
<polygon fill="none" stroke="black" points="558,-40.8 558,-92.8 688,-92.8 688,-40.8 558,-40.8"/>
</g>
<g id="clust3" class="cluster">
<title>cluster_AppModule_imports</title>
<polygon fill="none" stroke="black" points="16,-40.8 16,-92.8 550,-92.8 550,-40.8 16,-40.8"/>
</g>
<!-- ArticleModule -->
<g id="node1" class="node">
<title>ArticleModule</title>
<polygon fill="#8dd3c7" stroke="black" points="542.42,-84.8 539.42,-88.8 518.42,-88.8 515.42,-84.8 443.58,-84.8 443.58,-48.8 542.42,-48.8 542.42,-84.8"/>
<text text-anchor="middle" x="493" y="-62.6" font-family="Times,serif" font-size="14.00">ArticleModule</text>
</g>
<!-- AppModule -->
<g id="node6" class="node">
<title>AppModule</title>
<polygon fill="#8dd3c7" stroke="black" points="371.66,-149.8 368.66,-153.8 347.66,-153.8 344.66,-149.8 288.34,-149.8 288.34,-113.8 371.66,-113.8 371.66,-149.8"/>
<text text-anchor="middle" x="330" y="-127.6" font-family="Times,serif" font-size="14.00">AppModule</text>
</g>
<!-- ArticleModule&#45;&gt;AppModule -->
<g id="edge1" class="edge">
<title>ArticleModule&#45;&gt;AppModule</title>
<path fill="none" stroke="black" d="M493,-84.82C493,-102.17 493,-125.8 493,-125.8 493,-125.8 381.98,-125.8 381.98,-125.8"/>
<polygon fill="black" stroke="black" points="381.98,-122.3 371.98,-125.8 381.98,-129.3 381.98,-122.3"/>
</g>
<!-- AuthModule -->
<g id="node2" class="node">
<title>AuthModule</title>
<polygon fill="#8dd3c7" stroke="black" points="425.55,-84.8 422.55,-88.8 401.55,-88.8 398.55,-84.8 338.45,-84.8 338.45,-48.8 425.55,-48.8 425.55,-84.8"/>
<text text-anchor="middle" x="382" y="-62.6" font-family="Times,serif" font-size="14.00">AuthModule</text>
</g>
<!-- AuthModule&#45;&gt;AppModule -->
<g id="edge2" class="edge">
<title>AuthModule&#45;&gt;AppModule</title>
<path fill="none" stroke="black" d="M355.03,-84.91C355.03,-84.91 355.03,-103.79 355.03,-103.79"/>
<polygon fill="black" stroke="black" points="351.53,-103.79 355.03,-113.79 358.53,-103.79 351.53,-103.79"/>
</g>
<!-- CaslModule -->
<g id="node3" class="node">
<title>CaslModule</title>
<polygon fill="#8dd3c7" stroke="black" points="320.44,-84.8 317.44,-88.8 296.44,-88.8 293.44,-84.8 235.56,-84.8 235.56,-48.8 320.44,-48.8 320.44,-84.8"/>
<text text-anchor="middle" x="278" y="-62.6" font-family="Times,serif" font-size="14.00">CaslModule</text>
</g>
<!-- CaslModule&#45;&gt;AppModule -->
<g id="edge3" class="edge">
<title>CaslModule&#45;&gt;AppModule</title>
<path fill="none" stroke="black" d="M304.19,-84.91C304.19,-84.91 304.19,-103.79 304.19,-103.79"/>
<polygon fill="black" stroke="black" points="300.7,-103.79 304.19,-113.79 307.7,-103.79 300.7,-103.79"/>
</g>
<!-- CatsModule -->
<g id="node4" class="node">
<title>CatsModule</title>
<polygon fill="#8dd3c7" stroke="black" points="218.44,-84.8 215.44,-88.8 194.44,-88.8 191.44,-84.8 133.56,-84.8 133.56,-48.8 218.44,-48.8 218.44,-84.8"/>
<text text-anchor="middle" x="176" y="-62.6" font-family="Times,serif" font-size="14.00">CatsModule</text>
</g>
<!-- CatsModule&#45;&gt;AppModule -->
<g id="edge4" class="edge">
<title>CatsModule&#45;&gt;AppModule</title>
<path fill="none" stroke="black" d="M176,-84.82C176,-102.17 176,-125.8 176,-125.8 176,-125.8 278.33,-125.8 278.33,-125.8"/>
<polygon fill="black" stroke="black" points="278.33,-129.3 288.33,-125.8 278.33,-122.3 278.33,-129.3"/>
</g>
<!-- UsersModule -->
<g id="node5" class="node">
<title>UsersModule</title>
<polygon fill="#8dd3c7" stroke="black" points="115.92,-84.8 112.92,-88.8 91.92,-88.8 88.92,-84.8 24.08,-84.8 24.08,-48.8 115.92,-48.8 115.92,-84.8"/>
<text text-anchor="middle" x="70" y="-62.6" font-family="Times,serif" font-size="14.00">UsersModule</text>
</g>
<!-- UsersModule&#45;&gt;AppModule -->
<g id="edge5" class="edge">
<title>UsersModule&#45;&gt;AppModule</title>
<path fill="none" stroke="black" d="M70,-85.08C70,-106.12 70,-137.8 70,-137.8 70,-137.8 278.23,-137.8 278.23,-137.8"/>
<polygon fill="black" stroke="black" points="278.23,-141.3 288.23,-137.8 278.23,-134.3 278.23,-141.3"/>
</g>
<!-- AppService -->
<g id="node7" class="node">
<title>AppService</title>
<ellipse fill="#fdb462" stroke="black" cx="623" cy="-66.8" rx="56.74" ry="18"/>
<text text-anchor="middle" x="623" y="-62.6" font-family="Times,serif" font-size="14.00">AppService</text>
</g>
<!-- AppService&#45;&gt;AppModule -->
<g id="edge6" class="edge">
<title>AppService&#45;&gt;AppModule</title>
<path fill="none" stroke="black" d="M623,-85.08C623,-106.12 623,-137.8 623,-137.8 623,-137.8 381.67,-137.8 381.67,-137.8"/>
<polygon fill="black" stroke="black" points="381.67,-134.3 371.67,-137.8 381.67,-141.3 381.67,-134.3"/>
</g>
</g>
</svg>
