<?xml version="1.0" encoding="UTF-8" standalone="no"?>
<!DOCTYPE svg PUBLIC "-//W3C//DTD SVG 1.1//EN"
 "http://www.w3.org/Graphics/SVG/1.1/DTD/svg11.dtd">
<!-- Generated by graphviz version 2.47.3 (20210619.1520)
 -->
<!-- Title: dependencies Pages: 1 -->
<svg width="2064pt" height="326pt"
 viewBox="0.00 0.00 2064.00 325.80" xmlns="http://www.w3.org/2000/svg" xmlns:xlink="http://www.w3.org/1999/xlink">
<g id="graph0" class="graph" transform="scale(1 1) rotate(0) translate(4 321.8)">
<title>dependencies</title>
<polygon fill="white" stroke="transparent" points="-4,4 -4,-321.8 2060,-321.8 2060,4 -4,4"/>
<text text-anchor="middle" x="1028" y="-8.2" font-family="sans-serif" font-size="14.00">dependencies</text>
<g id="clust1" class="cluster">
<title>cluster_AppModule</title>
<polygon fill="none" stroke="black" stroke-dasharray="1,5" points="560,-108.8 560,-309.8 1142,-309.8 1142,-108.8 560,-108.8"/>
</g>
<g id="clust3" class="cluster">
<title>cluster_AppModule_imports</title>
<polygon fill="none" stroke="black" points="706,-116.8 706,-244.8 1134,-244.8 1134,-116.8 706,-116.8"/>
</g>
<g id="clust6" class="cluster">
<title>cluster_AppModule_providers</title>
<polygon fill="none" stroke="black" points="568,-192.8 568,-244.8 698,-244.8 698,-192.8 568,-192.8"/>
</g>
<g id="clust7" class="cluster">
<title>cluster_ArticleModule</title>
<polygon fill="none" stroke="black" stroke-dasharray="1,5" points="680,-32.8 680,-100.8 846,-100.8 846,-32.8 680,-32.8"/>
</g>
<g id="clust12" class="cluster">
<title>cluster_ArticleModule_providers</title>
<polygon fill="none" stroke="black" points="688,-40.8 688,-92.8 838,-92.8 838,-40.8 688,-40.8"/>
</g>
<g id="clust13" class="cluster">
<title>cluster_AuthModule</title>
<polygon fill="none" stroke="black" stroke-dasharray="1,5" points="8,-108.8 8,-176.8 552,-176.8 552,-108.8 8,-108.8"/>
</g>
<g id="clust16" class="cluster">
<title>cluster_AuthModule_exports</title>
<polygon fill="none" stroke="black" points="438,-116.8 438,-168.8 544,-168.8 544,-116.8 438,-116.8"/>
</g>
<g id="clust18" class="cluster">
<title>cluster_AuthModule_providers</title>
<polygon fill="none" stroke="black" points="16,-116.8 16,-168.8 430,-168.8 430,-116.8 16,-116.8"/>
</g>
<g id="clust19" class="cluster">
<title>cluster_CaslModule</title>
<polygon fill="none" stroke="black" stroke-dasharray="1,5" points="1150,-184.8 1150,-252.8 1502,-252.8 1502,-184.8 1150,-184.8"/>
</g>
<g id="clust22" class="cluster">
<title>cluster_CaslModule_exports</title>
<polygon fill="none" stroke="black" points="1352,-192.8 1352,-244.8 1494,-244.8 1494,-192.8 1352,-192.8"/>
</g>
<g id="clust24" class="cluster">
<title>cluster_CaslModule_providers</title>
<polygon fill="none" stroke="black" points="1158,-192.8 1158,-244.8 1344,-244.8 1344,-192.8 1158,-192.8"/>
</g>
<g id="clust25" class="cluster">
<title>cluster_CatsModule</title>
<polygon fill="none" stroke="black" stroke-dasharray="1,5" points="1510,-184.8 1510,-252.8 1766,-252.8 1766,-184.8 1510,-184.8"/>
</g>
<g id="clust28" class="cluster">
<title>cluster_CatsModule_exports</title>
<polygon fill="none" stroke="black" points="1656,-192.8 1656,-244.8 1758,-244.8 1758,-192.8 1656,-192.8"/>
</g>
<g id="clust30" class="cluster">
<title>cluster_CatsModule_providers</title>
<polygon fill="none" stroke="black" points="1518,-192.8 1518,-244.8 1648,-244.8 1648,-192.8 1518,-192.8"/>
</g>
<g id="clust31" class="cluster">
<title>cluster_UsersModule</title>
<polygon fill="none" stroke="black" stroke-dasharray="1,5" points="1774,-184.8 1774,-252.8 2048,-252.8 2048,-184.8 1774,-184.8"/>
</g>
<g id="clust34" class="cluster">
<title>cluster_UsersModule_exports</title>
<polygon fill="none" stroke="black" points="1930,-192.8 1930,-244.8 2040,-244.8 2040,-192.8 1930,-192.8"/>
</g>
<g id="clust36" class="cluster">
<title>cluster_UsersModule_providers</title>
<polygon fill="none" stroke="black" points="1782,-192.8 1782,-244.8 1922,-244.8 1922,-192.8 1782,-192.8"/>
</g>
<!-- ArticleModule -->
<g id="node1" class="node">
<title>ArticleModule</title>
<polygon fill="#8dd3c7" stroke="black" points="812.42,-160.8 809.42,-164.8 788.42,-164.8 785.42,-160.8 713.58,-160.8 713.58,-124.8 812.42,-124.8 812.42,-160.8"/>
<text text-anchor="middle" x="763" y="-138.6" font-family="Times,serif" font-size="14.00">ArticleModule</text>
</g>
<!-- AppModule -->
<g id="node6" class="node">
<title>AppModule</title>
<polygon fill="#8dd3c7" stroke="black" points="891.66,-301.8 888.66,-305.8 867.66,-305.8 864.66,-301.8 808.34,-301.8 808.34,-265.8 891.66,-265.8 891.66,-301.8"/>
<text text-anchor="middle" x="850" y="-279.6" font-family="Times,serif" font-size="14.00">AppModule</text>
</g>
<!-- ArticleModule&#45;&gt;AppModule -->
<g id="edge1" class="edge">
<title>ArticleModule&#45;&gt;AppModule</title>
<path fill="none" stroke="black" d="M812.46,-142.8C819.24,-142.8 823.92,-142.8 823.92,-142.8 823.92,-142.8 823.92,-255.66 823.92,-255.66"/>
<polygon fill="black" stroke="black" points="820.42,-255.66 823.92,-265.66 827.42,-255.66 820.42,-255.66"/>
</g>
<!-- AuthModule -->
<g id="node2" class="node">
<title>AuthModule</title>
<polygon fill="#8dd3c7" stroke="black" points="801.55,-236.8 798.55,-240.8 777.55,-240.8 774.55,-236.8 714.45,-236.8 714.45,-200.8 801.55,-200.8 801.55,-236.8"/>
<text text-anchor="middle" x="758" y="-214.6" font-family="Times,serif" font-size="14.00">AuthModule</text>
</g>
<!-- AuthModule&#45;&gt;AppModule -->
<g id="edge2" class="edge">
<title>AuthModule&#45;&gt;AppModule</title>
<path fill="none" stroke="black" d="M801.65,-227.8C810.97,-227.8 818.07,-227.8 818.07,-227.8 818.07,-227.8 818.07,-255.77 818.07,-255.77"/>
<polygon fill="black" stroke="black" points="814.57,-255.77 818.07,-265.77 821.57,-255.77 814.57,-255.77"/>
</g>
<!-- AuthService  -->
<g id="node9" class="node">
<title>AuthService </title>
<polygon fill="#fb8072" stroke="black" points="535.98,-160.8 446.02,-160.8 446.02,-124.8 535.98,-124.8 535.98,-160.8"/>
<text text-anchor="middle" x="491" y="-138.6" font-family="Times,serif" font-size="14.00">AuthService </text>
</g>
<!-- AuthModule&#45;&gt;AuthService  -->
<g id="edge9" class="edge">
<title>AuthModule&#45;&gt;AuthService </title>
<path fill="none" stroke="black" stroke-dasharray="5,2" d="M714.23,-218.8C708.73,-218.8 704.99,-218.8 704.99,-218.8 704.99,-218.8 704.99,-142.8 704.99,-142.8 704.99,-142.8 545.86,-142.8 545.86,-142.8"/>
<polygon fill="black" stroke="black" points="545.86,-139.3 535.86,-142.8 545.86,-146.3 545.86,-139.3"/>
</g>
<!-- CaslModule -->
<g id="node3" class="node">
<title>CaslModule</title>
<polygon fill="#8dd3c7" stroke="black" points="914.44,-160.8 911.44,-164.8 890.44,-164.8 887.44,-160.8 829.56,-160.8 829.56,-124.8 914.44,-124.8 914.44,-160.8"/>
<text text-anchor="middle" x="872" y="-138.6" font-family="Times,serif" font-size="14.00">CaslModule</text>
</g>
<!-- CaslModule&#45;&gt;AppModule -->
<g id="edge3" class="edge">
<title>CaslModule&#45;&gt;AppModule</title>
<path fill="none" stroke="black" d="M860.81,-160.94C860.81,-160.94 860.81,-255.73 860.81,-255.73"/>
<polygon fill="black" stroke="black" points="857.31,-255.72 860.81,-265.73 864.31,-255.73 857.31,-255.72"/>
</g>
<!-- CaslAbilityFactory  -->
<g id="node13" class="node">
<title>CaslAbilityFactory </title>
<polygon fill="#fb8072" stroke="black" points="1486.32,-236.8 1359.68,-236.8 1359.68,-200.8 1486.32,-200.8 1486.32,-236.8"/>
<text text-anchor="middle" x="1423" y="-214.6" font-family="Times,serif" font-size="14.00">CaslAbilityFactory </text>
</g>
<!-- CaslModule&#45;&gt;CaslAbilityFactory  -->
<g id="edge13" class="edge">
<title>CaslModule&#45;&gt;CaslAbilityFactory </title>
<path fill="none" stroke="black" stroke-dasharray="5,2" d="M899.29,-161.22C899.29,-170.08 899.29,-178.8 899.29,-178.8 899.29,-178.8 1423,-178.8 1423,-178.8 1423,-178.8 1423,-190.67 1423,-190.67"/>
<polygon fill="black" stroke="black" points="1419.5,-190.67 1423,-200.67 1426.5,-190.67 1419.5,-190.67"/>
</g>
<!-- CatsModule -->
<g id="node4" class="node">
<title>CatsModule</title>
<polygon fill="#8dd3c7" stroke="black" points="1016.44,-160.8 1013.44,-164.8 992.44,-164.8 989.44,-160.8 931.56,-160.8 931.56,-124.8 1016.44,-124.8 1016.44,-160.8"/>
<text text-anchor="middle" x="974" y="-138.6" font-family="Times,serif" font-size="14.00">CatsModule</text>
</g>
<!-- CatsModule&#45;&gt;AppModule -->
<g id="edge4" class="edge">
<title>CatsModule&#45;&gt;AppModule</title>
<path fill="none" stroke="black" d="M995.11,-161.01C995.11,-197.86 995.11,-277.8 995.11,-277.8 995.11,-277.8 901.97,-277.8 901.97,-277.8"/>
<polygon fill="black" stroke="black" points="901.97,-274.3 891.97,-277.8 901.97,-281.3 901.97,-274.3"/>
</g>
<!-- CatsService  -->
<g id="node15" class="node">
<title>CatsService </title>
<polygon fill="#fb8072" stroke="black" points="1750.36,-236.8 1663.64,-236.8 1663.64,-200.8 1750.36,-200.8 1750.36,-236.8"/>
<text text-anchor="middle" x="1707" y="-214.6" font-family="Times,serif" font-size="14.00">CatsService </text>
</g>
<!-- CatsModule&#45;&gt;CatsService  -->
<g id="edge15" class="edge">
<title>CatsModule&#45;&gt;CatsService </title>
<path fill="none" stroke="black" stroke-dasharray="5,2" d="M952.89,-160.99C952.89,-164.34 952.89,-166.8 952.89,-166.8 952.89,-166.8 1707,-166.8 1707,-166.8 1707,-166.8 1707,-190.61 1707,-190.61"/>
<polygon fill="black" stroke="black" points="1703.5,-190.61 1707,-200.61 1710.5,-190.61 1703.5,-190.61"/>
</g>
<!-- UsersModule -->
<g id="node5" class="node">
<title>UsersModule</title>
<polygon fill="#8dd3c7" stroke="black" points="1125.92,-160.8 1122.92,-164.8 1101.92,-164.8 1098.92,-160.8 1034.08,-160.8 1034.08,-124.8 1125.92,-124.8 1125.92,-160.8"/>
<text text-anchor="middle" x="1080" y="-138.6" font-family="Times,serif" font-size="14.00">UsersModule</text>
</g>
<!-- UsersModule&#45;&gt;AuthModule -->
<g id="edge8" class="edge">
<title>UsersModule&#45;&gt;AuthModule</title>
<path fill="none" stroke="black" d="M1064.76,-160.81C1064.76,-183.29 1064.76,-218.8 1064.76,-218.8 1064.76,-218.8 811.63,-218.8 811.63,-218.8"/>
<polygon fill="black" stroke="black" points="811.63,-215.3 801.63,-218.8 811.63,-222.3 811.63,-215.3"/>
</g>
<!-- UsersModule&#45;&gt;AppModule -->
<g id="edge5" class="edge">
<title>UsersModule&#45;&gt;AppModule</title>
<path fill="none" stroke="black" d="M1095.24,-160.83C1095.24,-200.08 1095.24,-289.8 1095.24,-289.8 1095.24,-289.8 901.88,-289.8 901.88,-289.8"/>
<polygon fill="black" stroke="black" points="901.88,-286.3 891.88,-289.8 901.88,-293.3 901.88,-286.3"/>
</g>
<!-- UsersService  -->
<g id="node17" class="node">
<title>UsersService </title>
<polygon fill="#fb8072" stroke="black" points="2031.85,-236.8 1938.15,-236.8 1938.15,-200.8 2031.85,-200.8 2031.85,-236.8"/>
<text text-anchor="middle" x="1985" y="-214.6" font-family="Times,serif" font-size="14.00">UsersService </text>
</g>
<!-- UsersModule&#45;&gt;UsersService  -->
<g id="edge17" class="edge">
<title>UsersModule&#45;&gt;UsersService </title>
<path fill="none" stroke="black" stroke-dasharray="5,2" d="M1125.81,-136.8C1309.78,-136.8 1985,-136.8 1985,-136.8 1985,-136.8 1985,-190.6 1985,-190.6"/>
<polygon fill="black" stroke="black" points="1981.5,-190.6 1985,-200.6 1988.5,-190.6 1981.5,-190.6"/>
</g>
<!-- AppService -->
<g id="node7" class="node">
<title>AppService</title>
<ellipse fill="#fdb462" stroke="black" cx="633" cy="-218.8" rx="56.74" ry="18"/>
<text text-anchor="middle" x="633" y="-214.6" font-family="Times,serif" font-size="14.00">AppService</text>
</g>
<!-- AppService&#45;&gt;AppModule -->
<g id="edge6" class="edge">
<title>AppService&#45;&gt;AppModule</title>
<path fill="none" stroke="black" d="M633,-236.91C633,-256.14 633,-283.8 633,-283.8 633,-283.8 798.16,-283.8 798.16,-283.8"/>
<polygon fill="black" stroke="black" points="798.16,-287.3 808.16,-283.8 798.16,-280.3 798.16,-287.3"/>
</g>
<!-- ArticleService -->
<g id="node8" class="node">
<title>ArticleService</title>
<ellipse fill="#fdb462" stroke="black" cx="763" cy="-66.8" rx="66.61" ry="18"/>
<text text-anchor="middle" x="763" y="-62.6" font-family="Times,serif" font-size="14.00">ArticleService</text>
</g>
<!-- ArticleService&#45;&gt;ArticleModule -->
<g id="edge7" class="edge">
<title>ArticleService&#45;&gt;ArticleModule</title>
<path fill="none" stroke="black" d="M763,-84.81C763,-84.81 763,-114.65 763,-114.65"/>
<polygon fill="black" stroke="black" points="759.5,-114.65 763,-124.65 766.5,-114.65 759.5,-114.65"/>
</g>
<!-- AuthService -->
<g id="node10" class="node">
<title>AuthService</title>
<ellipse fill="#fdb462" stroke="black" cx="363" cy="-142.8" rx="59.11" ry="18"/>
<text text-anchor="middle" x="363" y="-138.6" font-family="Times,serif" font-size="14.00">AuthService</text>
</g>
<!-- AuthService&#45;&gt;AuthModule -->
<g id="edge10" class="edge">
<title>AuthService&#45;&gt;AuthModule</title>
<path fill="none" stroke="black" d="M363,-160.9C363,-171.89 363,-183.8 363,-183.8 363,-183.8 779.89,-183.8 779.89,-183.8 779.89,-183.8 779.89,-190.48 779.89,-190.48"/>
<polygon fill="black" stroke="black" points="776.39,-190.48 779.89,-200.48 783.39,-190.48 776.39,-190.48"/>
</g>
<!-- JwtStrategy -->
<g id="node11" class="node">
<title>JwtStrategy</title>
<ellipse fill="#fdb462" stroke="black" cx="229" cy="-142.8" rx="56.76" ry="18"/>
<text text-anchor="middle" x="229" y="-138.6" font-family="Times,serif" font-size="14.00">JwtStrategy</text>
</g>
<!-- JwtStrategy&#45;&gt;AuthModule -->
<g id="edge11" class="edge">
<title>JwtStrategy&#45;&gt;AuthModule</title>
<path fill="none" stroke="black" d="M229,-160.84C229,-174.09 229,-189.8 229,-189.8 229,-189.8 758,-189.8 758,-189.8 758,-189.8 758,-190.88 758,-190.88"/>
<polygon fill="black" stroke="black" points="754.5,-190.6 758,-200.6 761.5,-190.6 754.5,-190.6"/>
</g>
<!-- LocalStrategy -->
<g id="node12" class="node">
<title>LocalStrategy</title>
<ellipse fill="#fdb462" stroke="black" cx="89" cy="-142.8" rx="65.41" ry="18"/>
<text text-anchor="middle" x="89" y="-138.6" font-family="Times,serif" font-size="14.00">LocalStrategy</text>
</g>
<!-- LocalStrategy&#45;&gt;AuthModule -->
<g id="edge12" class="edge">
<title>LocalStrategy&#45;&gt;AuthModule</title>
<path fill="none" stroke="black" d="M89,-161.04C89,-176.37 89,-195.8 89,-195.8 89,-195.8 736.11,-195.8 736.11,-195.8 736.11,-195.8 736.11,-196.29 736.11,-196.29"/>
<polygon fill="black" stroke="black" points="732.61,-190.68 736.11,-200.68 739.61,-190.68 732.61,-190.68"/>
</g>
<!-- CaslAbilityFactory -->
<g id="node14" class="node">
<title>CaslAbilityFactory</title>
<ellipse fill="#fdb462" stroke="black" cx="1251" cy="-218.8" rx="85.13" ry="18"/>
<text text-anchor="middle" x="1251" y="-214.6" font-family="Times,serif" font-size="14.00">CaslAbilityFactory</text>
</g>
<!-- CaslAbilityFactory&#45;&gt;CaslModule -->
<g id="edge14" class="edge">
<title>CaslAbilityFactory&#45;&gt;CaslModule</title>
<path fill="none" stroke="black" d="M1177.15,-209.8C1076,-209.8 906.75,-209.8 906.75,-209.8 906.75,-209.8 906.75,-171.11 906.75,-171.11"/>
<polygon fill="black" stroke="black" points="910.25,-171.11 906.75,-161.11 903.25,-171.11 910.25,-171.11"/>
</g>
<!-- CatsService -->
<g id="node16" class="node">
<title>CatsService</title>
<ellipse fill="#fdb462" stroke="black" cx="1583" cy="-218.8" rx="57.32" ry="18"/>
<text text-anchor="middle" x="1583" y="-214.6" font-family="Times,serif" font-size="14.00">CatsService</text>
</g>
<!-- CatsService&#45;&gt;CatsModule -->
<g id="edge16" class="edge">
<title>CatsService&#45;&gt;CatsModule</title>
<path fill="none" stroke="black" d="M1583,-200.62C1583,-187.76 1583,-172.8 1583,-172.8 1583,-172.8 974,-172.8 974,-172.8 974,-172.8 974,-170.94 974,-170.94"/>
<polygon fill="black" stroke="black" points="977.5,-170.94 974,-160.94 970.5,-170.94 977.5,-170.94"/>
</g>
<!-- UsersService -->
<g id="node18" class="node">
<title>UsersService</title>
<ellipse fill="#fdb462" stroke="black" cx="1852" cy="-218.8" rx="61.95" ry="18"/>
<text text-anchor="middle" x="1852" y="-214.6" font-family="Times,serif" font-size="14.00">UsersService</text>
</g>
<!-- UsersService&#45;&gt;UsersModule -->
<g id="edge18" class="edge">
<title>UsersService&#45;&gt;UsersModule</title>
<path fill="none" stroke="black" d="M1852,-200.77C1852,-180.03 1852,-148.8 1852,-148.8 1852,-148.8 1135.98,-148.8 1135.98,-148.8"/>
<polygon fill="black" stroke="black" points="1135.98,-145.3 1125.98,-148.8 1135.98,-152.3 1135.98,-145.3"/>
</g>
</g>
</svg>
